<svg xmlns="http://www.w3.org/2000/svg" version="1.1" xmlns:xlink="http://www.w3.org/1999/xlink" xmlns:svgjs="http://svgjs.com/svgjs" width="72" height="52"><svg width="72" height="52" viewBox="0 0 72 52" fill="none" xmlns="http://www.w3.org/2000/svg">
<path fill-rule="evenodd" clip-rule="evenodd" d="M68.4374 39.6107L64.5121 33.6779V32.8054L68.0961 36.6443L69.7174 39.0872L68.4374 39.6107ZM24.4054 19.8926V21.6376H22.6987V19.4564L24.32 17.9732L26.9654 16.4027H29.952L27.392 17.7114L24.4054 19.8926Z" fill="black"></path>
<path d="M7.76534 23.3826L10.4107 22.0738L14.592 15.7919L15.872 15.2685L17.2374 21.6376L15.4454 21.8993L14.08 19.2819L13.056 23.3826H17.5787L22.272 24.604L24.1494 23.3826L27.3067 26.698L28.672 20.5906L30.8907 22.8591L32.256 20.9396L34.4747 20.3289L37.7174 17.2752L38.2294 15.7919L40.8747 16.2282L41.9841 17.7114L40.0214 21.8993L44.8854 19.3691V18.1476L46.7627 17.7114L48.8107 19.8054L50.8587 17.2752V15.5302L54.1867 13.1745L55.5521 11.1678H57.6854L61.4401 3.40268L64.6828 0L65.8774 1.91946L64.0001 4.36242L64.6828 5.93289L66.4748 6.28188L67.9254 12.7383V18.1476L70.4854 21.7248L71.7654 26.698L67.3281 23.8188L65.3654 15.5302L64.1707 15.7919L64.0001 21.3758L60.7574 26.698L59.8187 34.8121L62.0374 35.3356L62.9761 34.2013L65.1094 36.6443L66.7307 43.9732L66.5601 48.6846H64.5121L63.7441 42.0537L62.2934 44.0604L59.1361 43.3624L56.5761 41.1812L53.6747 42.2282L53.8454 46.9396L51.5414 47.5503L48.1281 50.1678L44.0321 49.6443L42.4107 48.6846L39.8507 49.1208L40.7041 50.1678L38.6561 51.3893L37.0347 50.604L33.9627 52L29.2694 49.6443L27.4774 45.4564L25.9414 45.6309L24.1494 44.1477L24.064 43.0134L18.3467 42.4027L17.408 45.5436L13.824 43.8859L12.032 40.8322H8.19201L7.76534 45.7181L5.54667 46.4161L4.43734 50.8658L3.584 50.0805L0 40.745L4.26667 38.651L3.584 34.5503L2.90134 30.3624L4.77867 27.6577L4.18134 26L6.74134 23.2081L7.76534 23.3826Z" fill="black"></path>
</svg><style>@media (prefers-color-scheme: light) { :root { filter: none; } }
@media (prefers-color-scheme: dark) { :root { filter: contrast(0.7407407407407407) brightness(2); } }
</style></svg>